<svg width="60" height="60" viewBox="0 0 60 60" fill="none" xmlns="http://www.w3.org/2000/svg">
<path d="M47.9609 5.8575C47.7732 5.85469 47.5858 5.87444 47.4028 5.91633C46.6444 6.09211 45.9854 6.66797 45.7212 7.73098C44.9897 10.6737 44.1204 13.5203 43.0914 16.2423L47.8382 18.6914C49.7579 16.8214 51.8066 15.0929 53.9584 13.5299C57.5416 10.9273 53.2915 6.58664 50.1913 10.8769C51.7627 7.92785 49.7877 5.88141 47.9609 5.8575ZM37.2892 15.9802C36.3373 21.3912 30.1505 35.6025 22.7671 38.4176L9.07148 38.5451C4.24664 35.0873 -0.360704 40.0705 5.24531 42.8637L13.2746 46.7713C18.7677 47.2365 23.9592 48.3088 27.0994 53.4959L29.3728 54.6034C33.4632 56.6414 37.1144 56.1588 37.9603 49.3419C39.1505 39.7522 44.9095 29.0647 51.5388 23.0321L45.0824 19.8369C44.9068 20.3068 44.6789 20.8246 44.405 21.3586C43.4954 23.1329 42.4345 24.4077 42.0369 24.2039C41.6393 24 42.0548 22.3944 42.9646 20.62C43.2344 20.0936 43.5177 19.6116 43.7928 19.1986L41.5932 18.11C41.3135 18.7886 41.0171 19.4601 40.7041 20.124C39.1891 23.3401 37.6036 25.7828 37.1651 25.5762C36.7267 25.3696 37.6002 22.5916 39.1152 19.3755C39.4322 18.7019 39.7661 18.0363 40.1166 17.3795L37.2892 15.9802Z" fill="white"/>
</svg>
